<?xml version="1.0" standalone="no"?>
<!DOCTYPE svg PUBLIC "-//W3C//DTD SVG 20010904//EN"
 "http://www.w3.org/TR/2001/REC-SVG-20010904/DTD/svg10.dtd">
<svg version="1.0" xmlns="http://www.w3.org/2000/svg"
 width="320.000000pt" height="320.000000pt" viewBox="0 0 320.000000 320.000000"
 preserveAspectRatio="xMidYMid meet">

<g transform="translate(0.000000,320.000000) scale(0.100000,-0.100000)"
fill="#000000" stroke="none">
<path d="M1441 2083 c-49 -210 -141 -624 -141 -633 0 -6 40 -10 100 -10 81 0
100 3 100 15 0 7 5 37 11 65 l11 50 79 0 c87 0 79 8 97 -85 l8 -40 97 -3 c62
-2 97 1 97 8 0 9 -92 419 -141 633 l-21 87 -138 0 -138 0 -21 -87z m188 -218
c29 -152 31 -145 -29 -145 -33 0 -50 4 -50 13 -1 32 45 256 51 249 3 -4 16
-56 28 -117z"/>
<path d="M275 1938 c-3 -7 -27 -114 -55 -238 -28 -124 -53 -233 -56 -243 -5
-16 4 -17 138 -15 l143 3 17 65 c23 93 25 89 -35 92 l-54 3 38 165 c21 91 39
168 39 173 0 13 -170 8 -175 -5z"/>
<path d="M595 1938 c-8 -21 -105 -472 -105 -485 0 -9 21 -13 74 -13 l74 0 9
38 c8 34 12 37 43 37 33 0 35 -2 38 -38 l3 -38 75 3 75 3 2 253 2 252 -143 0
c-105 0 -144 -3 -147 -12z m135 -208 c0 -64 -3 -82 -16 -87 -30 -11 -34 12
-13 90 12 42 23 77 25 77 2 0 4 -36 4 -80z"/>
<path d="M950 1695 l0 -256 142 3 143 3 52 230 c29 127 55 240 58 253 6 23 5
23 -76 20 l-82 -3 -36 -157 c-20 -86 -39 -160 -43 -164 -5 -4 -8 68 -8 159 l0
167 -75 0 -75 0 0 -255z"/>
<path d="M1843 1943 c3 -5 10 -41 17 -80 l12 -73 54 0 c45 0 54 -3 54 -17 0
-10 -7 -81 -15 -158 -8 -77 -15 -148 -15 -157 0 -16 14 -18 156 -18 143 0 155
1 150 18 -2 9 -10 43 -16 75 l-11 57 -43 0 c-23 0 -45 2 -47 5 -3 2 3 75 12
162 10 87 18 166 18 176 1 15 -13 17 -165 17 -91 0 -163 -3 -161 -7z"/>
<path d="M2204 1928 c3 -13 10 -49 16 -80 l11 -58 55 0 55 0 -6 -47 c-14 -123
-25 -245 -25 -273 l0 -30 154 0 153 0 -15 75 -15 75 -49 0 -50 0 6 38 c3 20
10 87 16 147 6 61 13 125 16 143 l5 32 -166 0 -165 0 4 -22z"/>
<path d="M2640 1695 l0 -255 75 0 75 0 0 40 c0 40 0 40 39 40 37 0 40 -2 48
-37 l9 -38 78 -3 c61 -2 77 0 74 10 -3 7 -29 122 -59 256 l-54 242 -142 0
-143 0 0 -255z m180 34 c19 -75 16 -97 -14 -86 -13 5 -16 23 -16 88 0 45 3 80
6 77 3 -4 14 -39 24 -79z"/>
<path d="M633 1179 c-49 -18 -54 -85 -8 -115 21 -14 30 -14 55 -4 77 32 31
148 -47 119z m45 -31 c17 -17 15 -43 -4 -59 -31 -26 -70 25 -44 56 15 18 32
19 48 3z"/>
<path d="M1200 1182 c-29 -9 -50 -35 -50 -62 0 -34 18 -57 52 -65 21 -5 33 -1
52 19 29 29 33 52 11 83 -16 22 -41 32 -65 25z m44 -44 c15 -25 -4 -53 -35
-53 -25 0 -37 30 -25 61 8 20 46 14 60 -8z"/>
<path d="M2451 1173 c-28 -19 -24 -54 8 -69 23 -12 23 -12 2 -19 -12 -3 -21
-11 -21 -16 0 -16 26 -10 54 12 56 44 14 132 -43 92z m44 -33 c0 -8 -8 -16
-17 -18 -13 -2 -18 3 -18 18 0 15 5 20 18 18 9 -2 17 -10 17 -18z"/>
<path d="M450 1170 c0 -5 9 -10 20 -10 17 0 20 -7 20 -50 0 -38 4 -50 15 -50
11 0 15 12 15 50 0 43 3 50 20 50 11 0 20 5 20 10 0 6 -25 10 -55 10 -30 0
-55 -4 -55 -10z"/>
<path d="M770 1121 c0 -61 12 -80 24 -38 l7 22 16 -22 c8 -13 22 -23 29 -23
17 0 18 12 3 27 -8 8 -7 17 3 32 19 30 0 55 -46 59 l-36 3 0 -60z m55 19 c0
-7 -6 -15 -12 -17 -8 -3 -13 4 -13 17 0 13 5 20 13 18 6 -3 12 -11 12 -18z"/>
<path d="M910 1120 c0 -47 3 -60 15 -60 12 0 15 13 15 60 0 47 -3 60 -15 60
-12 0 -15 -13 -15 -60z"/>
<path d="M990 1120 c0 -47 3 -60 15 -60 10 0 15 10 15 32 l0 31 23 -19 c58
-52 57 -52 57 15 0 48 -3 61 -15 61 -10 0 -15 -10 -15 -32 l0 -32 -33 32 c-18
18 -36 32 -40 32 -4 0 -7 -27 -7 -60z"/>
<path d="M1420 1120 c0 -33 4 -60 10 -60 6 0 10 27 10 60 0 33 -4 60 -10 60
-6 0 -10 -27 -10 -60z"/>
<path d="M1490 1170 c0 -5 7 -10 15 -10 11 0 15 -12 15 -50 0 -38 4 -50 15
-50 11 0 15 12 15 50 0 43 3 50 20 50 11 0 20 5 20 10 0 6 -22 10 -50 10 -27
0 -50 -4 -50 -10z"/>
<path d="M1637 1123 c-18 -39 -23 -59 -15 -62 7 -2 14 1 16 8 5 15 45 14 60
-1 23 -23 22 0 -3 55 -13 32 -26 57 -28 57 -2 0 -16 -26 -30 -57z m37 -8 c3
-8 1 -15 -4 -15 -6 0 -10 7 -10 15 0 8 2 15 4 15 2 0 6 -7 10 -15z"/>
<path d="M1770 1120 l0 -60 35 0 c19 0 35 5 35 10 0 6 -11 10 -25 10 -23 0
-25 3 -25 50 0 28 -4 50 -10 50 -6 0 -10 -27 -10 -60z"/>
<path d="M1890 1120 c0 -33 4 -60 10 -60 6 0 10 27 10 60 0 33 -4 60 -10 60
-6 0 -10 -27 -10 -60z"/>
<path d="M1987 1123 c-18 -39 -23 -59 -15 -62 7 -2 14 1 16 8 5 15 45 14 60
-1 23 -23 22 0 -3 55 -13 32 -26 57 -28 57 -2 0 -16 -26 -30 -57z m37 -8 c3
-9 0 -15 -9 -15 -9 0 -12 6 -9 15 4 8 7 15 9 15 2 0 5 -7 9 -15z"/>
<path d="M2210 1169 c-11 -8 -12 -12 -2 -16 7 -3 12 -23 12 -49 0 -32 4 -44
15 -44 12 0 15 13 15 60 0 62 -8 72 -40 49z"/>
<path d="M2309 1173 c-1 -4 -3 -29 -5 -55 -4 -57 16 -75 61 -58 22 8 26 15 20
33 -3 12 -7 36 -8 52 -2 26 -6 30 -34 33 -18 2 -34 0 -34 -5z m49 -31 c2 -7
-3 -12 -12 -12 -9 0 -16 7 -16 16 0 17 22 14 28 -4z m0 -50 c2 -7 -3 -12 -12
-12 -9 0 -16 7 -16 16 0 17 22 14 28 -4z"/>
<path d="M2570 1145 c0 -23 5 -35 13 -34 26 3 37 -2 37 -16 0 -9 -10 -15 -26
-15 -16 0 -24 -5 -21 -12 5 -16 58 -13 69 4 15 24 8 48 -17 60 -14 6 -25 15
-25 20 0 4 11 8 25 8 14 0 25 5 25 10 0 6 -18 10 -40 10 -39 0 -40 -1 -40 -35z"/>
<path d="M1320 1065 c0 -8 5 -15 10 -15 6 0 10 7 10 15 0 8 -4 15 -10 15 -5 0
-10 -7 -10 -15z"/>
<path d="M2120 1065 c0 -8 5 -15 10 -15 6 0 10 7 10 15 0 8 -4 15 -10 15 -5 0
-10 -7 -10 -15z"/>
</g>
</svg>
